
<svg xmlns="http://www.w3.org/2000/svg" xmlns:xlink="http://www.w3.org/1999/xlink" viewBox="0 0 500 500" width="500" height="500" preserveAspectRatio="xMidYMid meet" style="width: 100%; height: 100%; transform: translate3d(0px, 0px, 0px); content-visibility: visible;"><defs><clipPath id="__lottie_element_1185"><rect width="500" height="500" x="0" y="0"/></clipPath><clipPath id="__lottie_element_1187"><path d="M0,0 L500,0 L500,500 L0,500z"/></clipPath><g id="__lottie_element_1256"><g clip-path="url(#__lottie_element_1257)" transform="matrix(1,0,0,1,0,0)" opacity="1" style="display: none;"><g class="primary design" transform="matrix(1,0,0,1,250.00399780273438,250.0030059814453)" opacity="1" style="display: block;"><g opacity="1" transform="matrix(1,0,0,1,0,0)"><path stroke-linecap="round" stroke-linejoin="round" fill-opacity="0" stroke="rgb(0,0,0)" stroke-opacity="1" stroke-width="42" d=" M-252.00399780273438,0 C-252.00399780273438,0 -138.6199951171875,0 3.9179999828338623,0 C185.68699645996094,0 252.00399780273438,0 252.00399780273438,0"/></g></g><g class="primary design" transform="matrix(1,0,0,1,0,0)" opacity="1" style="display: block;"><g opacity="1" transform="matrix(1,0,0,1,202.5030059814453,250.00399780273438)"><path stroke-linecap="round" stroke-linejoin="round" fill-opacity="0" stroke="rgb(0,0,0)" stroke-opacity="1" stroke-width="42" d=" M80.49700164794922,229.2558135986328 C210.16641235351562,207.2613067626953 278.473876953125,102.46987915039062 278.473876953125,0.07698839157819748 C278.473876953125,-102.31590270996094 210.16641235351562,-202.30105590820312 80.49700164794922,-230.00369262695312"/></g></g><g class="primary design" transform="matrix(1,0,0,1,0,0)" opacity="1" style="display: none;"><g opacity="1" transform="matrix(1,0,0,1,202.5030059814453,250.00399780273438)"><path stroke-linecap="round" stroke-linejoin="round" fill-opacity="0" stroke="rgb(0,0,0)" stroke-opacity="1" stroke-width="42" d=" M80.49700164794922,229.23947143554688 C208.81658935546875,207.0279998779297 276.47283935546875,102.45941925048828 276.47283935546875,0.07598389685153961 C276.47283935546875,-102.30744934082031 208.81658935546875,-202.13246154785156 80.49700164794922,-229.9776153564453"/></g></g><g class="primary design" transform="matrix(1,0,0,1,0,0)" opacity="1" style="display: none;"><g opacity="1" transform="matrix(1,0,0,1,202.5030059814453,250.00399780273438)"><path stroke-linecap="round" stroke-linejoin="round" fill-opacity="0" stroke="rgb(0,0,0)" stroke-opacity="1" stroke-width="42" d=" M80.49700164794922,229.22329711914062 C207.4789276123047,206.7967987060547 274.48980712890625,102.44905090332031 274.48980712890625,0.074988454580307 C274.48980712890625,-102.299072265625 207.4789276123047,-201.96539306640625 80.49700164794922,-229.95175170898438"/></g></g><g class="primary design" transform="matrix(1,0,0,1,0,0)" opacity="1" style="display: block;"><g opacity="1" transform="matrix(1,0,0,1,202.5030059814453,250.00399780273438)"><path stroke-linecap="round" stroke-linejoin="round" fill-opacity="0" stroke="rgb(0,0,0)" stroke-opacity="1" stroke-width="42" d=" M80.48812103271484,228.0037384033203 C106.69530487060547,189.37977600097656 125.08551788330078,101.66788482666016 125.08551788330078,0 C125.08551788330078,-101.66788482666016 106.69530487060547,-189.37977600097656 80.48812103271484,-228.0037384033203"/></g></g><g class="primary design" transform="matrix(1,0,0,1,0,0)" opacity="1" style="display: block;"><g opacity="1" transform="matrix(1,0,0,1,202.5030059814453,250.00399780273438)"><path stroke-linecap="round" stroke-linejoin="round" fill-opacity="0" stroke="rgb(0,0,0)" stroke-opacity="1" stroke-width="42" d=" M13.496362686157227,226.0043182373047 C-11.787264823913574,187.7219696044922 -29.52770233154297,100.7761459350586 -29.52770233154297,0 C-29.52770233154297,-100.7761459350586 -11.78754711151123,-187.72215270996094 13.496362686157227,-226.0043182373047"/></g></g></g></g><clipPath id="__lottie_element_1257"><path d="M0,0 L500,0 L500,500 L0,500z"/></clipPath><filter id="__lottie_element_1260" filterUnits="objectBoundingBox" x="0%" y="0%" width="100%" height="100%"><feComponentTransfer in="SourceGraphic"><feFuncA type="table" tableValues="1.0 0.0"/></feComponentTransfer></filter><mask id="__lottie_element_1256_2" mask-type="alpha"><g filter="url(#__lottie_element_1260)"><rect width="500" height="500" x="0" y="0" fill="#ffffff" opacity="0"/><use xmlns:ns1="http://www.w3.org/1999/xlink" ns1:href="#__lottie_element_1256"/></g></mask><clipPath id="__lottie_element_1450"><path d="M0,0 L500,0 L500,500 L0,500z"/></clipPath><g id="__lottie_element_1466"><g clip-path="url(#__lottie_element_1467)" transform="matrix(1,0,0,1,0,0)" opacity="1" style="display: block;"><g class="primary design" transform="matrix(1,0,0,1,250.00399780273438,250.0030059814453)" opacity="1" style="display: block;"><g opacity="1" transform="matrix(1,0,0,1,0,0)"><path stroke-linecap="round" stroke-linejoin="round" fill-opacity="0" class="primary" stroke="rgb(198,31,21)" stroke-opacity="1" stroke-width="42" d=" M-323.9960021972656,0 C-323.9960021972656,0 323.9960021972656,0 323.9960021972656,0"/></g></g><g class="primary design" transform="matrix(1,0,0,1,0,0)" opacity="1" style="display: block;"><g opacity="1" transform="matrix(1,0,0,1,202.5030059814453,250.00399780273438)"><path stroke-linecap="round" stroke-linejoin="round" fill-opacity="0" class="primary" stroke="rgb(198,31,21)" stroke-opacity="1" stroke-width="42" d=" M49.14805221557617,227.06820678710938 C51.273895263671875,188.6028289794922 52.765262603759766,101.25064086914062 52.765262603759766,0 C52.765262603759766,-101.25064086914062 51.273895263671875,-188.6028289794922 49.14805221557617,-227.06820678710938"/></g></g><g class="primary design" transform="matrix(1,0,0,1,0,0)" opacity="1" style="display: block;"><g opacity="1" transform="matrix(1,0,0,1,202.5030059814453,250.00399780273438)"><path stroke-linecap="round" stroke-linejoin="round" fill-opacity="0" class="primary" stroke="rgb(198,31,21)" stroke-opacity="1" stroke-width="42" d=" M80.49700164794922,228.9468536376953 C184.63226318359375,202.84796142578125 240.62069702148438,102.27196502685547 240.62069702148438,0.057986654341220856 C240.62069702148438,-102.15599060058594 184.63226318359375,-199.11196899414062 80.49700164794922,-229.51014709472656"/></g></g><g class="primary design" transform="matrix(1,0,0,1,0,0)" opacity="1" style="display: none;"><g opacity="1" transform="matrix(1,0,0,1,202.5030059814453,250.00399780273438)"><path stroke-linecap="round" stroke-linejoin="round" fill-opacity="0" class="primary" stroke="rgb(198,31,21)" stroke-opacity="1" stroke-width="42" d=" M80.49700164794922,229.25599670410156 C210.1820068359375,207.26400756835938 278.49700927734375,102.47000122070312 278.49700927734375,0.07699999958276749 C278.49700927734375,-102.31600189208984 210.1820068359375,-202.30299377441406 80.49700164794922,-230.00399780273438"/></g></g><g class="primary design" transform="matrix(1,0,0,1,0,0)" opacity="1" style="display: block;"><g opacity="1" transform="matrix(1,0,0,1,202.5030059814453,250.00399780273438)"><path stroke-linecap="round" stroke-linejoin="round" fill-opacity="0" class="primary" stroke="rgb(198,31,21)" stroke-opacity="1" stroke-width="42" d=" M11.08620548248291,227.2093963623047 C-73.28421783447266,198.92919921875 -122.92127227783203,101.31360626220703 -122.92127227783203,0 C-122.92127227783203,-101.31360626220703 -74.34918975830078,-199.6560516357422 11.08620548248291,-227.2093963623047"/></g></g><g class="primary design" transform="matrix(1,0,0,1,0,0)" opacity="1" style="display: none;"><g opacity="1" transform="matrix(1,0,0,1,202.5030059814453,250.00399780273438)"><path stroke-linecap="round" stroke-linejoin="round" fill-opacity="0" class="primary" stroke="rgb(198,31,21)" stroke-opacity="1" stroke-width="42" d=" M13.329549789428711,226.0877227783203 C-16.04361915588379,188.49765014648438 -35.99169921875,100.81333923339844 -35.99169921875,0 C-35.99169921875,-100.81333923339844 -16.117589950561523,-188.54812622070312 13.329549789428711,-226.0877227783203"/></g></g></g></g><clipPath id="__lottie_element_1467"><path d="M0,0 L500,0 L500,500 L0,500z"/></clipPath><filter id="__lottie_element_1470" filterUnits="objectBoundingBox" x="0%" y="0%" width="100%" height="100%"><feComponentTransfer in="SourceGraphic"><feFuncA type="table" tableValues="1.0 0.0"/></feComponentTransfer></filter><mask id="__lottie_element_1466_2" mask-type="alpha"><g filter="url(#__lottie_element_1470)"><rect width="500" height="500" x="0" y="0" fill="#ffffff" opacity="0"/><use xmlns:ns2="http://www.w3.org/1999/xlink" ns2:href="#__lottie_element_1466"/></g></mask><clipPath id="__lottie_element_1642"><path d="M0,0 L500,0 L500,500 L0,500z"/></clipPath><g id="__lottie_element_1684"><g clip-path="url(#__lottie_element_1688)" transform="matrix(0.9999994039535522,0.0011170104844495654,-0.0011170104844495654,0.9999994039535522,0.2794036865234375,-0.2790985107421875)" opacity="1" style="display: block;"><g class="primary design" transform="matrix(1,0,0,1,250.00399780273438,250.0030059814453)" opacity="1" style="display: block;"><g opacity="1" transform="matrix(1,0,0,1,0,0)"><path stroke-linecap="round" stroke-linejoin="round" fill-opacity="0" class="primary" stroke="rgb(198,31,21)" stroke-opacity="1" stroke-width="42" d=" M-241.00143432617188,0.0045464299619197845 C-241.00143432617188,0.0045464299619197845 -145.09613037109375,0.06593474745750427 12.499035835266113,0.06593474745750427 C167.58905029296875,0.06593474745750427 241.00143432617188,0.0045464299619197845 241.00143432617188,0.0045464299619197845"/></g></g><g class="primary design" transform="matrix(1,0,0,1,0,0)" opacity="1" style="display: none;"><g opacity="1" transform="matrix(1,0,0,1,202.5030059814453,250.00399780273438)"><path stroke-linecap="round" stroke-linejoin="round" fill-opacity="0" class="primary" stroke="rgb(198,31,21)" stroke-opacity="1" stroke-width="42" d=" M80.49700164794922,229.25599670410156 C210.1820068359375,207.26400756835938 278.49700927734375,102.47000122070312 278.49700927734375,0.07699999958276749 C278.49700927734375,-102.31600189208984 210.1820068359375,-202.30299377441406 80.49700164794922,-230.00399780273438"/></g></g><g class="primary design" transform="matrix(1,0,0,1,0,0)" opacity="1" style="display: none;"><g opacity="1" transform="matrix(1,0,0,1,202.5030059814453,250.00399780273438)"><path stroke-linecap="round" stroke-linejoin="round" fill-opacity="0" class="primary" stroke="rgb(198,31,21)" stroke-opacity="1" stroke-width="42" d=" M80.49700164794922,229.24221801757812 C209.04275512695312,207.0670928955078 276.80810546875,102.46116638183594 276.80810546875,0.07615220546722412 C276.80810546875,-102.30886840820312 209.04275512695312,-202.1607208251953 80.49700164794922,-229.9819793701172"/></g></g><g class="primary design" transform="matrix(1,0,0,1,0,0)" opacity="1" style="display: none;"><g opacity="1" transform="matrix(1,0,0,1,202.5030059814453,250.00399780273438)"><path stroke-linecap="round" stroke-linejoin="round" fill-opacity="0" class="primary" stroke="rgb(198,31,21)" stroke-opacity="1" stroke-width="42" d=" M78.10466766357422,190.25650024414062 C183.44895935058594,171.8314208984375 238.99847412109375,85 238.99847412109375,0 C238.99847412109375,-85 183.44895935058594,-167.88751220703125 78.10466766357422,-190.99549865722656"/></g></g><g class="primary design" transform="matrix(1,0,0,1,0,0)" opacity="1" style="display: block;"><g opacity="1" transform="matrix(1,0,0,1,202.5030059814453,250.00399780273438)"><path stroke-linecap="round" stroke-linejoin="round" fill-opacity="0" class="primary" stroke="rgb(198,31,21)" stroke-opacity="1" stroke-width="42" d=" M80.49700164794922,229.25149536132812 C209.81027221679688,207.1997528076172 277.9459228515625,102.46711730957031 277.9459228515625,0.0767233669757843 C277.9459228515625,-102.31367492675781 209.81027221679688,-202.25657653808594 80.49700164794922,-229.99681091308594"/></g></g><g class="primary design" transform="matrix(1,0,0,1,0,0)" opacity="1" style="display: block;"><g opacity="1" transform="matrix(1,0,0,1,202.5030059814453,250.00399780273438)"><path stroke-linecap="round" stroke-linejoin="round" fill-opacity="0" class="primary" stroke="rgb(198,31,21)" stroke-opacity="1" stroke-width="42" d=" M80.25629425048828,227.99681091308594 C106.28533935546875,189.37403869628906 124.55054473876953,101.664794921875 124.55054473876953,0 C124.55054473876953,-101.664794921875 106.28533935546875,-189.37403869628906 80.25629425048828,-227.99681091308594"/></g></g><g class="primary design" transform="matrix(1,0,0,1,0,0)" opacity="1" style="display: block;"><g opacity="1" transform="matrix(1,0,0,1,202.5030059814453,250.00399780273438)"><path stroke-linecap="round" stroke-linejoin="round" fill-opacity="0" class="primary" stroke="rgb(198,31,21)" stroke-opacity="1" stroke-width="42" d=" M13.479470252990723,226.0127716064453 C-12.218295097351074,187.80052185058594 -30.182292938232422,100.7799072265625 -30.182292938232422,0 C-30.182292938232422,-100.7799072265625 -12.226038932800293,-187.80580139160156 13.479470252990723,-226.0127716064453"/></g></g></g></g><clipPath id="__lottie_element_1688"><path d="M0,0 L500,0 L500,500 L0,500z"/></clipPath><filter id="__lottie_element_1691" filterUnits="objectBoundingBox" x="0%" y="0%" width="100%" height="100%"><feComponentTransfer in="SourceGraphic"><feFuncA type="table" tableValues="1.0 0.0"/></feComponentTransfer></filter><mask id="__lottie_element_1684_2" mask-type="alpha"><g filter="url(#__lottie_element_1691)"><rect width="500" height="500" x="0" y="0" fill="#ffffff" opacity="0"/><use xmlns:ns3="http://www.w3.org/1999/xlink" ns3:href="#__lottie_element_1684"/></g></mask></defs><g clip-path="url(#__lottie_element_1185)"><g clip-path="url(#__lottie_element_1450)" transform="matrix(1,0,0,1,0,0)" opacity="1" style="display: none;"><g mask="url(#__lottie_element_1466_2)" style="display: block;"><g class="primary design" transform="matrix(1,0,0,1,250.00399780273438,250.0030059814453)" opacity="1"><path class="primary" fill="rgb(198,31,21)" fill-opacity="1" d=" M192.70899963378906,0 C192.70899963378906,106.43000030517578 106.43000030517578,192.70899963378906 0,192.70899963378906 C-106.43000030517578,192.70899963378906 -192.70899963378906,106.43000030517578 -192.70899963378906,0 C-192.70899963378906,-106.43000030517578 -106.43000030517578,-192.70899963378906 0,-192.70899963378906 C106.43000030517578,-192.70899963378906 192.70899963378906,-106.43000030517578 192.70899963378906,0z"/><g opacity="1" transform="matrix(1,0,0,1,0,0)"><path stroke-linecap="round" stroke-linejoin="round" fill-opacity="0" class="primary" stroke="rgb(198,31,21)" stroke-opacity="1" stroke-width="31.3" d=" M192.70899963378906,0 C192.70899963378906,106.43000030517578 106.43000030517578,192.70899963378906 0,192.70899963378906 C-106.43000030517578,192.70899963378906 -192.70899963378906,106.43000030517578 -192.70899963378906,0 C-192.70899963378906,-106.43000030517578 -106.43000030517578,-192.70899963378906 0,-192.70899963378906 C106.43000030517578,-192.70899963378906 192.70899963378906,-106.43000030517578 192.70899963378906,0z"/></g></g></g><g class="primary design" transform="matrix(1,0,0,1,0,0)" opacity="1" style="display: none;"><g opacity="1" transform="matrix(1,0,0,1,0,0)"><g opacity="1" transform="matrix(1,0,0,1,111.04199981689453,358.43701171875)"><path class="primary" fill="rgb(198,31,21)" fill-opacity="1" d=" M66.875,83.85399627685547 C67.29199981689453,85.10399627685547 67.70800018310547,86.35399627685547 68.33300018310547,87.60399627685547 C-5.625,60.9370002746582 -60.20800018310547,-6.561999797821045 -68.33300018310547,-87.60399627685547 C-68.33300018310547,-87.60399627685547 40.41699981689453,-87.60399627685547 40.41699981689453,-87.60399627685547 C41.875,-22.604000091552734 51.04100036621094,36.979000091552734 66.45800018310547,82.39600372314453 C66.66600036621094,82.81300354003906 66.66699981689453,83.43699645996094 66.875,83.85399627685547z"/></g><g opacity="1" transform="matrix(1,0,0,1,111.04199981689453,141.56199645996094)"><path class="primary" fill="rgb(198,31,21)" fill-opacity="1" d=" M40.41699981689453,87.60399627685547 C40.41699981689453,87.60399627685547 -68.33300018310547,87.60399627685547 -68.33300018310547,87.60399627685547 C-60.20800018310547,6.561999797821045 -5.625,-60.9370002746582 68.33300018310547,-87.60399627685547 C67.70800018310547,-86.35399627685547 67.29199981689453,-85.10399627685547 66.875,-83.85399627685547 C66.875,-83.43699645996094 66.66600036621094,-82.81300354003906 66.45800018310547,-82.39600372314453 C51.04100036621094,-36.979000091552734 41.875,22.604000091552734 40.41699981689453,87.60399627685547z"/></g><g opacity="1" transform="matrix(1,0,0,1,250,364.5830078125)"><path class="primary" fill="rgb(198,31,21)" fill-opacity="1" d=" M-56.875,-93.75 C-56.875,-93.75 56.875,-93.75 56.875,-93.75 C55.41699981689453,-33.33300018310547 46.66699981689453,23.125 32.5,63.95800018310547 C32.5,64.58300018310547 32.29100036621094,65 32.08300018310547,65.625 C28.541000366210938,76.04199981689453 24.583999633789062,85.20800018310547 20.41699981689453,92.70800018310547 C13.75,93.33300018310547 6.875,93.75 0,93.75 C-6.875,93.75 -13.75,93.33300018310547 -20.41699981689453,92.70800018310547 C-24.583999633789062,85.20800018310547 -28.541000366210938,76.04100036621094 -32.08300018310547,65.83300018310547 C-32.29100036621094,65.20800018310547 -32.5,64.58300018310547 -32.5,63.95800018310547 C-46.66699981689453,23.125 -55.41699981689453,-33.33300018310547 -56.875,-93.75z"/></g><g opacity="1" transform="matrix(1,0,0,1,250,135.41700744628906)"><path class="primary" fill="rgb(198,31,21)" fill-opacity="1" d=" M56.875,93.75 C56.875,93.75 -56.875,93.75 -56.875,93.75 C-55.41699981689453,33.33300018310547 -46.66699981689453,-23.125 -32.5,-63.95800018310547 C-32.5,-64.58300018310547 -32.29100036621094,-65 -32.08300018310547,-65.625 C-28.541000366210938,-76.04199981689453 -24.583999633789062,-85.20800018310547 -20.41699981689453,-92.70800018310547 C-13.75,-93.33300018310547 -6.875,-93.75 0,-93.75 C6.875,-93.75 13.75,-93.33300018310547 20.41699981689453,-92.70800018310547 C24.583999633789062,-85.20800018310547 28.541000366210938,-76.04100036621094 32.08300018310547,-65.83300018310547 C32.29100036621094,-65.20800018310547 32.5,-64.58300018310547 32.5,-63.95800018310547 C46.66699981689453,-23.125 55.41699981689453,33.33300018310547 56.875,93.75z"/></g><g opacity="1" transform="matrix(1,0,0,1,388.9580078125,358.43701171875)"><path class="primary" fill="rgb(198,31,21)" fill-opacity="1" d=" M-40.41699981689453,-87.60399627685547 C-40.41699981689453,-87.60399627685547 68.33300018310547,-87.60399627685547 68.33300018310547,-87.60399627685547 C60.20800018310547,-6.561999797821045 5.625,60.9370002746582 -68.33300018310547,87.60399627685547 C-67.70800018310547,86.35399627685547 -67.29199981689453,85.10399627685547 -66.875,83.85399627685547 C-66.875,83.43699645996094 -66.66600036621094,82.81300354003906 -66.45800018310547,82.39600372314453 C-51.04100036621094,36.979000091552734 -41.875,-22.604000091552734 -40.41699981689453,-87.60399627685547z"/></g><g opacity="1" transform="matrix(1,0,0,1,388.9580078125,141.56199645996094)"><path class="primary" fill="rgb(198,31,21)" fill-opacity="1" d=" M-66.875,-83.85399627685547 C-67.29199981689453,-85.10399627685547 -67.70800018310547,-86.35399627685547 -68.33300018310547,-87.60399627685547 C5.625,-60.9370002746582 60.20800018310547,6.561999797821045 68.33300018310547,87.60399627685547 C68.33300018310547,87.60399627685547 -40.41699981689453,87.60399627685547 -40.41699981689453,87.60399627685547 C-41.875,22.604000091552734 -51.04100036621094,-36.979000091552734 -66.45800018310547,-82.39600372314453 C-66.66600036621094,-82.81300354003906 -66.66699981689453,-83.43699645996094 -66.875,-83.85399627685547z"/></g></g></g><g class="primary design" transform="matrix(1,0,0,1,0,0)" opacity="1" style="display: none;"><g opacity="1" transform="matrix(1,0,0,1,0,0)"><g opacity="1" transform="matrix(1,0,0,1,111.04199981689453,358.43701171875)"><path class="primary" fill="rgb(198,31,21)" fill-opacity="1" d=" M66.875,83.85399627685547 C67.29199981689453,85.10399627685547 67.70800018310547,86.35399627685547 68.33300018310547,87.60399627685547 C-5.625,60.9370002746582 -60.20800018310547,-6.561999797821045 -68.33300018310547,-87.60399627685547 C-68.33300018310547,-87.60399627685547 40.41699981689453,-87.60399627685547 40.41699981689453,-87.60399627685547 C41.875,-22.604000091552734 51.04100036621094,36.979000091552734 66.45800018310547,82.39600372314453 C66.66600036621094,82.81300354003906 66.66699981689453,83.43699645996094 66.875,83.85399627685547z"/></g><g opacity="1" transform="matrix(1,0,0,1,111.04199981689453,141.56199645996094)"><path class="primary" fill="rgb(198,31,21)" fill-opacity="1" d=" M40.41699981689453,87.60399627685547 C40.41699981689453,87.60399627685547 -68.33300018310547,87.60399627685547 -68.33300018310547,87.60399627685547 C-60.20800018310547,6.561999797821045 -5.625,-60.9370002746582 68.33300018310547,-87.60399627685547 C67.70800018310547,-86.35399627685547 67.29199981689453,-85.10399627685547 66.875,-83.85399627685547 C66.875,-83.43699645996094 66.66600036621094,-82.81300354003906 66.45800018310547,-82.39600372314453 C51.04100036621094,-36.979000091552734 41.875,22.604000091552734 40.41699981689453,87.60399627685547z"/></g><g opacity="1" transform="matrix(1,0,0,1,250,364.5830078125)"><path class="primary" fill="rgb(198,31,21)" fill-opacity="1" d=" M-56.875,-93.75 C-56.875,-93.75 56.875,-93.75 56.875,-93.75 C55.41699981689453,-33.33300018310547 46.66699981689453,23.125 32.5,63.95800018310547 C32.5,64.58300018310547 32.29100036621094,65 32.08300018310547,65.625 C28.541000366210938,76.04199981689453 24.583999633789062,85.20800018310547 20.41699981689453,92.70800018310547 C13.75,93.33300018310547 6.875,93.75 0,93.75 C-6.875,93.75 -13.75,93.33300018310547 -20.41699981689453,92.70800018310547 C-24.583999633789062,85.20800018310547 -28.541000366210938,76.04100036621094 -32.08300018310547,65.83300018310547 C-32.29100036621094,65.20800018310547 -32.5,64.58300018310547 -32.5,63.95800018310547 C-46.66699981689453,23.125 -55.41699981689453,-33.33300018310547 -56.875,-93.75z"/></g><g opacity="1" transform="matrix(1,0,0,1,250,135.41700744628906)"><path class="primary" fill="rgb(198,31,21)" fill-opacity="1" d=" M56.875,93.75 C56.875,93.75 -56.875,93.75 -56.875,93.75 C-55.41699981689453,33.33300018310547 -46.66699981689453,-23.125 -32.5,-63.95800018310547 C-32.5,-64.58300018310547 -32.29100036621094,-65 -32.08300018310547,-65.625 C-28.541000366210938,-76.04199981689453 -24.583999633789062,-85.20800018310547 -20.41699981689453,-92.70800018310547 C-13.75,-93.33300018310547 -6.875,-93.75 0,-93.75 C6.875,-93.75 13.75,-93.33300018310547 20.41699981689453,-92.70800018310547 C24.583999633789062,-85.20800018310547 28.541000366210938,-76.04100036621094 32.08300018310547,-65.83300018310547 C32.29100036621094,-65.20800018310547 32.5,-64.58300018310547 32.5,-63.95800018310547 C46.66699981689453,-23.125 55.41699981689453,33.33300018310547 56.875,93.75z"/></g><g opacity="1" transform="matrix(1,0,0,1,388.9580078125,358.43701171875)"><path class="primary" fill="rgb(198,31,21)" fill-opacity="1" d=" M-40.41699981689453,-87.60399627685547 C-40.41699981689453,-87.60399627685547 68.33300018310547,-87.60399627685547 68.33300018310547,-87.60399627685547 C60.20800018310547,-6.561999797821045 5.625,60.9370002746582 -68.33300018310547,87.60399627685547 C-67.70800018310547,86.35399627685547 -67.29199981689453,85.10399627685547 -66.875,83.85399627685547 C-66.875,83.43699645996094 -66.66600036621094,82.81300354003906 -66.45800018310547,82.39600372314453 C-51.04100036621094,36.979000091552734 -41.875,-22.604000091552734 -40.41699981689453,-87.60399627685547z"/></g><g opacity="1" transform="matrix(1,0,0,1,388.9580078125,141.56199645996094)"><path class="primary" fill="rgb(198,31,21)" fill-opacity="1" d=" M-66.875,-83.85399627685547 C-67.29199981689453,-85.10399627685547 -67.70800018310547,-86.35399627685547 -68.33300018310547,-87.60399627685547 C5.625,-60.9370002746582 60.20800018310547,6.561999797821045 68.33300018310547,87.60399627685547 C68.33300018310547,87.60399627685547 -40.41699981689453,87.60399627685547 -40.41699981689453,87.60399627685547 C-41.875,22.604000091552734 -51.04100036621094,-36.979000091552734 -66.45800018310547,-82.39600372314453 C-66.66600036621094,-82.81300354003906 -66.66699981689453,-83.43699645996094 -66.875,-83.85399627685547z"/></g></g></g></g><g clip-path="url(#__lottie_element_1187)" transform="matrix(1,0,0,1,0,0)" opacity="1" style="display: none;"><g mask="url(#__lottie_element_1256_2)" style="display: none;"><g class="primary design" transform="matrix(1,0,0,1,250.00399780273438,250.0030059814453)" opacity="1"><path class="primary" fill="rgb(198,31,21)" fill-opacity="1" d=" M192.70899963378906,0 C192.70899963378906,106.43000030517578 106.43000030517578,192.70899963378906 0,192.70899963378906 C-106.43000030517578,192.70899963378906 -192.70899963378906,106.43000030517578 -192.70899963378906,0 C-192.70899963378906,-106.43000030517578 -106.43000030517578,-192.70899963378906 0,-192.70899963378906 C106.43000030517578,-192.70899963378906 192.70899963378906,-106.43000030517578 192.70899963378906,0z"/><g opacity="1" transform="matrix(1,0,0,1,0,0)"><path stroke-linecap="round" stroke-linejoin="round" fill-opacity="0" class="primary" stroke="rgb(198,31,21)" stroke-opacity="1" stroke-width="31.3" d=" M192.70899963378906,0 C192.70899963378906,106.43000030517578 106.43000030517578,192.70899963378906 0,192.70899963378906 C-106.43000030517578,192.70899963378906 -192.70899963378906,106.43000030517578 -192.70899963378906,0 C-192.70899963378906,-106.43000030517578 -106.43000030517578,-192.70899963378906 0,-192.70899963378906 C106.43000030517578,-192.70899963378906 192.70899963378906,-106.43000030517578 192.70899963378906,0z"/></g></g></g><g class="primary design" transform="matrix(1,0,0,1,0,0)" opacity="1" style="display: block;"><g opacity="1" transform="matrix(1,0,0,1,0,0)"><g opacity="1" transform="matrix(1,0,0,1,111.04199981689453,358.43701171875)"><path class="primary" fill="rgb(198,31,21)" fill-opacity="1" d=" M66.875,83.85399627685547 C67.29199981689453,85.10399627685547 67.70800018310547,86.35399627685547 68.33300018310547,87.60399627685547 C-5.625,60.9370002746582 -60.20800018310547,-6.561999797821045 -68.33300018310547,-87.60399627685547 C-68.33300018310547,-87.60399627685547 40.41699981689453,-87.60399627685547 40.41699981689453,-87.60399627685547 C41.875,-22.604000091552734 51.04100036621094,36.979000091552734 66.45800018310547,82.39600372314453 C66.66600036621094,82.81300354003906 66.66699981689453,83.43699645996094 66.875,83.85399627685547z"/></g><g opacity="1" transform="matrix(1,0,0,1,111.04199981689453,141.56199645996094)"><path class="primary" fill="rgb(198,31,21)" fill-opacity="1" d=" M40.41699981689453,87.60399627685547 C40.41699981689453,87.60399627685547 -68.33300018310547,87.60399627685547 -68.33300018310547,87.60399627685547 C-60.20800018310547,6.561999797821045 -5.625,-60.9370002746582 68.33300018310547,-87.60399627685547 C67.70800018310547,-86.35399627685547 67.29199981689453,-85.10399627685547 66.875,-83.85399627685547 C66.875,-83.43699645996094 66.66600036621094,-82.81300354003906 66.45800018310547,-82.39600372314453 C51.04100036621094,-36.979000091552734 41.875,22.604000091552734 40.41699981689453,87.60399627685547z"/></g><g opacity="1" transform="matrix(1,0,0,1,250,364.5830078125)"><path class="primary" fill="rgb(198,31,21)" fill-opacity="1" d=" M-56.875,-93.75 C-56.875,-93.75 56.875,-93.75 56.875,-93.75 C55.41699981689453,-33.33300018310547 46.66699981689453,23.125 32.5,63.95800018310547 C32.5,64.58300018310547 32.29100036621094,65 32.08300018310547,65.625 C28.541000366210938,76.04199981689453 24.583999633789062,85.20800018310547 20.41699981689453,92.70800018310547 C13.75,93.33300018310547 6.875,93.75 0,93.75 C-6.875,93.75 -13.75,93.33300018310547 -20.41699981689453,92.70800018310547 C-24.583999633789062,85.20800018310547 -28.541000366210938,76.04100036621094 -32.08300018310547,65.83300018310547 C-32.29100036621094,65.20800018310547 -32.5,64.58300018310547 -32.5,63.95800018310547 C-46.66699981689453,23.125 -55.41699981689453,-33.33300018310547 -56.875,-93.75z"/></g><g opacity="1" transform="matrix(1,0,0,1,250,135.41700744628906)"><path class="primary" fill="rgb(198,31,21)" fill-opacity="1" d=" M56.875,93.75 C56.875,93.75 -56.875,93.75 -56.875,93.75 C-55.41699981689453,33.33300018310547 -46.66699981689453,-23.125 -32.5,-63.95800018310547 C-32.5,-64.58300018310547 -32.29100036621094,-65 -32.08300018310547,-65.625 C-28.541000366210938,-76.04199981689453 -24.583999633789062,-85.20800018310547 -20.41699981689453,-92.70800018310547 C-13.75,-93.33300018310547 -6.875,-93.75 0,-93.75 C6.875,-93.75 13.75,-93.33300018310547 20.41699981689453,-92.70800018310547 C24.583999633789062,-85.20800018310547 28.541000366210938,-76.04100036621094 32.08300018310547,-65.83300018310547 C32.29100036621094,-65.20800018310547 32.5,-64.58300018310547 32.5,-63.95800018310547 C46.66699981689453,-23.125 55.41699981689453,33.33300018310547 56.875,93.75z"/></g><g opacity="1" transform="matrix(1,0,0,1,388.9580078125,358.43701171875)"><path class="primary" fill="rgb(198,31,21)" fill-opacity="1" d=" M-40.41699981689453,-87.60399627685547 C-40.41699981689453,-87.60399627685547 68.33300018310547,-87.60399627685547 68.33300018310547,-87.60399627685547 C60.20800018310547,-6.561999797821045 5.625,60.9370002746582 -68.33300018310547,87.60399627685547 C-67.70800018310547,86.35399627685547 -67.29199981689453,85.10399627685547 -66.875,83.85399627685547 C-66.875,83.43699645996094 -66.66600036621094,82.81300354003906 -66.45800018310547,82.39600372314453 C-51.04100036621094,36.979000091552734 -41.875,-22.604000091552734 -40.41699981689453,-87.60399627685547z"/></g><g opacity="1" transform="matrix(1,0,0,1,388.9580078125,141.56199645996094)"><path class="primary" fill="rgb(198,31,21)" fill-opacity="1" d=" M-66.875,-83.85399627685547 C-67.29199981689453,-85.10399627685547 -67.70800018310547,-86.35399627685547 -68.33300018310547,-87.60399627685547 C5.625,-60.9370002746582 60.20800018310547,6.561999797821045 68.33300018310547,87.60399627685547 C68.33300018310547,87.60399627685547 -40.41699981689453,87.60399627685547 -40.41699981689453,87.60399627685547 C-41.875,22.604000091552734 -51.04100036621094,-36.979000091552734 -66.45800018310547,-82.39600372314453 C-66.66600036621094,-82.81300354003906 -66.66699981689453,-83.43699645996094 -66.875,-83.85399627685547z"/></g></g></g><g class="primary design" transform="matrix(1,0,0,1,0,0)" opacity="1" style="display: none;"><g opacity="1" transform="matrix(1,0,0,1,0,0)"><g opacity="1" transform="matrix(1,0,0,1,111.04199981689453,358.43701171875)"><path class="primary" fill="rgb(198,31,21)" fill-opacity="1" d=" M66.875,83.85399627685547 C67.29199981689453,85.10399627685547 67.70800018310547,86.35399627685547 68.33300018310547,87.60399627685547 C-5.625,60.9370002746582 -60.20800018310547,-6.561999797821045 -68.33300018310547,-87.60399627685547 C-68.33300018310547,-87.60399627685547 40.41699981689453,-87.60399627685547 40.41699981689453,-87.60399627685547 C41.875,-22.604000091552734 51.04100036621094,36.979000091552734 66.45800018310547,82.39600372314453 C66.66600036621094,82.81300354003906 66.66699981689453,83.43699645996094 66.875,83.85399627685547z"/></g><g opacity="1" transform="matrix(1,0,0,1,111.04199981689453,141.56199645996094)"><path class="primary" fill="rgb(198,31,21)" fill-opacity="1" d=" M40.41699981689453,87.60399627685547 C40.41699981689453,87.60399627685547 -68.33300018310547,87.60399627685547 -68.33300018310547,87.60399627685547 C-60.20800018310547,6.561999797821045 -5.625,-60.9370002746582 68.33300018310547,-87.60399627685547 C67.70800018310547,-86.35399627685547 67.29199981689453,-85.10399627685547 66.875,-83.85399627685547 C66.875,-83.43699645996094 66.66600036621094,-82.81300354003906 66.45800018310547,-82.39600372314453 C51.04100036621094,-36.979000091552734 41.875,22.604000091552734 40.41699981689453,87.60399627685547z"/></g><g opacity="1" transform="matrix(1,0,0,1,250,364.5830078125)"><path class="primary" fill="rgb(198,31,21)" fill-opacity="1" d=" M-56.875,-93.75 C-56.875,-93.75 56.875,-93.75 56.875,-93.75 C55.41699981689453,-33.33300018310547 46.66699981689453,23.125 32.5,63.95800018310547 C32.5,64.58300018310547 32.29100036621094,65 32.08300018310547,65.625 C28.541000366210938,76.04199981689453 24.583999633789062,85.20800018310547 20.41699981689453,92.70800018310547 C13.75,93.33300018310547 6.875,93.75 0,93.75 C-6.875,93.75 -13.75,93.33300018310547 -20.41699981689453,92.70800018310547 C-24.583999633789062,85.20800018310547 -28.541000366210938,76.04100036621094 -32.08300018310547,65.83300018310547 C-32.29100036621094,65.20800018310547 -32.5,64.58300018310547 -32.5,63.95800018310547 C-46.66699981689453,23.125 -55.41699981689453,-33.33300018310547 -56.875,-93.75z"/></g><g opacity="1" transform="matrix(1,0,0,1,250,135.41700744628906)"><path class="primary" fill="rgb(198,31,21)" fill-opacity="1" d=" M56.875,93.75 C56.875,93.75 -56.875,93.75 -56.875,93.75 C-55.41699981689453,33.33300018310547 -46.66699981689453,-23.125 -32.5,-63.95800018310547 C-32.5,-64.58300018310547 -32.29100036621094,-65 -32.08300018310547,-65.625 C-28.541000366210938,-76.04199981689453 -24.583999633789062,-85.20800018310547 -20.41699981689453,-92.70800018310547 C-13.75,-93.33300018310547 -6.875,-93.75 0,-93.75 C6.875,-93.75 13.75,-93.33300018310547 20.41699981689453,-92.70800018310547 C24.583999633789062,-85.20800018310547 28.541000366210938,-76.04100036621094 32.08300018310547,-65.83300018310547 C32.29100036621094,-65.20800018310547 32.5,-64.58300018310547 32.5,-63.95800018310547 C46.66699981689453,-23.125 55.41699981689453,33.33300018310547 56.875,93.75z"/></g><g opacity="1" transform="matrix(1,0,0,1,388.9580078125,358.43701171875)"><path class="primary" fill="rgb(198,31,21)" fill-opacity="1" d=" M-40.41699981689453,-87.60399627685547 C-40.41699981689453,-87.60399627685547 68.33300018310547,-87.60399627685547 68.33300018310547,-87.60399627685547 C60.20800018310547,-6.561999797821045 5.625,60.9370002746582 -68.33300018310547,87.60399627685547 C-67.70800018310547,86.35399627685547 -67.29199981689453,85.10399627685547 -66.875,83.85399627685547 C-66.875,83.43699645996094 -66.66600036621094,82.81300354003906 -66.45800018310547,82.39600372314453 C-51.04100036621094,36.979000091552734 -41.875,-22.604000091552734 -40.41699981689453,-87.60399627685547z"/></g><g opacity="1" transform="matrix(1,0,0,1,388.9580078125,141.56199645996094)"><path class="primary" fill="rgb(198,31,21)" fill-opacity="1" d=" M-66.875,-83.85399627685547 C-67.29199981689453,-85.10399627685547 -67.70800018310547,-86.35399627685547 -68.33300018310547,-87.60399627685547 C5.625,-60.9370002746582 60.20800018310547,6.561999797821045 68.33300018310547,87.60399627685547 C68.33300018310547,87.60399627685547 -40.41699981689453,87.60399627685547 -40.41699981689453,87.60399627685547 C-41.875,22.604000091552734 -51.04100036621094,-36.979000091552734 -66.45800018310547,-82.39600372314453 C-66.66600036621094,-82.81300354003906 -66.66699981689453,-83.43699645996094 -66.875,-83.85399627685547z"/></g></g></g></g><g clip-path="url(#__lottie_element_1642)" transform="matrix(1,0,0,1,0,0)" opacity="1" style="display: block;"><g mask="url(#__lottie_element_1684_2)" style="display: block;"><g class="primary design" transform="matrix(-1,0,0,-1,250.00399780273438,250.0030059814453)" opacity="1"><path class="primary" fill="rgb(198,31,21)" fill-opacity="1" d=" M192.65199279785156,-4.656000137329102 C195.2239990234375,101.74299621582031 111.05500030517578,190.0800018310547 4.656000137329102,192.65199279785156 C-101.74299621582031,195.2239990234375 -190.0800018310547,111.05500030517578 -192.65199279785156,4.656000137329102 C-195.2239990234375,-101.74299621582031 -111.05500030517578,-190.0800018310547 -4.656000137329102,-192.65199279785156 C101.74299621582031,-195.2239990234375 190.0800018310547,-111.05500030517578 192.65199279785156,-4.656000137329102z"/><g opacity="1" transform="matrix(1,0,0,1,0,0)"><path stroke-linecap="round" stroke-linejoin="round" fill-opacity="0" class="primary" stroke="rgb(198,31,21)" stroke-opacity="1" stroke-width="31.3" d=" M192.65199279785156,-4.656000137329102 C195.2239990234375,101.74299621582031 111.05500030517578,190.0800018310547 4.656000137329102,192.65199279785156 C-101.74299621582031,195.2239990234375 -190.0800018310547,111.05500030517578 -192.65199279785156,4.656000137329102 C-195.2239990234375,-101.74299621582031 -111.05500030517578,-190.0800018310547 -4.656000137329102,-192.65199279785156 C101.74299621582031,-195.2239990234375 190.0800018310547,-111.05500030517578 192.65199279785156,-4.656000137329102z"/></g></g></g><g class="primary design" style="display: none;"><g><path stroke-linecap="round" stroke-linejoin="round" fill-opacity="0" class="primary"/></g></g><g class="primary design" transform="matrix(1,0,0,1,0,0)" opacity="1" style="display: none;"><g opacity="1" transform="matrix(1,0,0,1,0,0)"><g opacity="1" transform="matrix(1,0,0,1,111.04199981689453,358.43701171875)"><path class="primary" fill="rgb(198,31,21)" fill-opacity="1" d=" M66.875,83.85399627685547 C67.29199981689453,85.10399627685547 67.70800018310547,86.35399627685547 68.33300018310547,87.60399627685547 C-5.625,60.9370002746582 -60.20800018310547,-6.561999797821045 -68.33300018310547,-87.60399627685547 C-68.33300018310547,-87.60399627685547 40.41699981689453,-87.60399627685547 40.41699981689453,-87.60399627685547 C41.875,-22.604000091552734 51.04100036621094,36.979000091552734 66.45800018310547,82.39600372314453 C66.66600036621094,82.81300354003906 66.66699981689453,83.43699645996094 66.875,83.85399627685547z"/></g><g opacity="1" transform="matrix(1,0,0,1,111.04199981689453,141.56199645996094)"><path class="primary" fill="rgb(198,31,21)" fill-opacity="1" d=" M40.41699981689453,87.60399627685547 C40.41699981689453,87.60399627685547 -68.33300018310547,87.60399627685547 -68.33300018310547,87.60399627685547 C-60.20800018310547,6.561999797821045 -5.625,-60.9370002746582 68.33300018310547,-87.60399627685547 C67.70800018310547,-86.35399627685547 67.29199981689453,-85.10399627685547 66.875,-83.85399627685547 C66.875,-83.43699645996094 66.66600036621094,-82.81300354003906 66.45800018310547,-82.39600372314453 C51.04100036621094,-36.979000091552734 41.875,22.604000091552734 40.41699981689453,87.60399627685547z"/></g><g opacity="1" transform="matrix(1,0,0,1,250,364.5830078125)"><path class="primary" fill="rgb(198,31,21)" fill-opacity="1" d=" M-56.875,-93.75 C-56.875,-93.75 56.875,-93.75 56.875,-93.75 C55.41699981689453,-33.33300018310547 46.66699981689453,23.125 32.5,63.95800018310547 C32.5,64.58300018310547 32.29100036621094,65 32.08300018310547,65.625 C28.541000366210938,76.04199981689453 24.583999633789062,85.20800018310547 20.41699981689453,92.70800018310547 C13.75,93.33300018310547 6.875,93.75 0,93.75 C-6.875,93.75 -13.75,93.33300018310547 -20.41699981689453,92.70800018310547 C-24.583999633789062,85.20800018310547 -28.541000366210938,76.04100036621094 -32.08300018310547,65.83300018310547 C-32.29100036621094,65.20800018310547 -32.5,64.58300018310547 -32.5,63.95800018310547 C-46.66699981689453,23.125 -55.41699981689453,-33.33300018310547 -56.875,-93.75z"/></g><g opacity="1" transform="matrix(1,0,0,1,250,135.41700744628906)"><path class="primary" fill="rgb(198,31,21)" fill-opacity="1" d=" M56.875,93.75 C56.875,93.75 -56.875,93.75 -56.875,93.75 C-55.41699981689453,33.33300018310547 -46.66699981689453,-23.125 -32.5,-63.95800018310547 C-32.5,-64.58300018310547 -32.29100036621094,-65 -32.08300018310547,-65.625 C-28.541000366210938,-76.04199981689453 -24.583999633789062,-85.20800018310547 -20.41699981689453,-92.70800018310547 C-13.75,-93.33300018310547 -6.875,-93.75 0,-93.75 C6.875,-93.75 13.75,-93.33300018310547 20.41699981689453,-92.70800018310547 C24.583999633789062,-85.20800018310547 28.541000366210938,-76.04100036621094 32.08300018310547,-65.83300018310547 C32.29100036621094,-65.20800018310547 32.5,-64.58300018310547 32.5,-63.95800018310547 C46.66699981689453,-23.125 55.41699981689453,33.33300018310547 56.875,93.75z"/></g><g opacity="1" transform="matrix(1,0,0,1,388.9580078125,358.43701171875)"><path class="primary" fill="rgb(198,31,21)" fill-opacity="1" d=" M-40.41699981689453,-87.60399627685547 C-40.41699981689453,-87.60399627685547 68.33300018310547,-87.60399627685547 68.33300018310547,-87.60399627685547 C60.20800018310547,-6.561999797821045 5.625,60.9370002746582 -68.33300018310547,87.60399627685547 C-67.70800018310547,86.35399627685547 -67.29199981689453,85.10399627685547 -66.875,83.85399627685547 C-66.875,83.43699645996094 -66.66600036621094,82.81300354003906 -66.45800018310547,82.39600372314453 C-51.04100036621094,36.979000091552734 -41.875,-22.604000091552734 -40.41699981689453,-87.60399627685547z"/></g><g opacity="1" transform="matrix(1,0,0,1,388.9580078125,141.56199645996094)"><path class="primary" fill="rgb(198,31,21)" fill-opacity="1" d=" M-66.875,-83.85399627685547 C-67.29199981689453,-85.10399627685547 -67.70800018310547,-86.35399627685547 -68.33300018310547,-87.60399627685547 C5.625,-60.9370002746582 60.20800018310547,6.561999797821045 68.33300018310547,87.60399627685547 C68.33300018310547,87.60399627685547 -40.41699981689453,87.60399627685547 -40.41699981689453,87.60399627685547 C-41.875,22.604000091552734 -51.04100036621094,-36.979000091552734 -66.45800018310547,-82.39600372314453 C-66.66600036621094,-82.81300354003906 -66.66699981689453,-83.43699645996094 -66.875,-83.85399627685547z"/></g></g></g></g></g></svg>